#!OML:ASF H:\Terrain\Walking\May29\JustinRory\Justin.ASF
:FULLY-SPECIFIED
:DEGREES
66
root 6.69667 18.0712 11.6457 -176.196 -11.2571 179.607
lowerback 2.70635 1.72868 -6.0646
upperback 1.21328 2.09373 -0.537271
thorax -0.466151 1.00834 2.77615
lowerneck -6.49333 -10.9339 -15.579
upperneck 11.7776 -15.0313 12.1818
head 6.75586 -7.34765 4.99038
rclavicle 3.4191e-014 -3.18055e-015
rhumerus -25.8796 -3.26519 -83.1372
rradius 58.2543
rwrist -16.4562
rhand -14.3018 26.2524
rfingers 7.12502
rthumb 11.8381 -3.39298
lclavicle 3.4191e-014 -3.18055e-015
lhumerus -29.074 17.8208 77.8516
lradius 35.1248
lwrist -5.67727
lhand 1.84699 39.3428
lfingers 7.12502
lthumb 27.3583 67.3772
rfemur -16.1276 -4.96614 10.6641
rtibia 26.9622
rfoot -9.27743 -10.2048
rtoes -3.10106
lfemur -6.28126 5.95881 -24.8713
ltibia 21.2531
lfoot -14.5391 0.396596
ltoes 4.39761
67
root 6.70619 18.0673 11.6277 -176.26 -11.2779 179.57
lowerback 2.98569 1.73788 -5.71959
upperback 1.14433 2.08173 -0.859171
thorax -0.669344 1.00652 2.24324
lowerneck -6.58461 -10.8834 -15.2321
upperneck 11.9281 -15.0574 12.3824
head 6.81173 -7.33808 4.99419
rclavicle -6.66923e-014 1.66979e-014
rhumerus -26.4115 -3.96822 -83.5303
rradius 57.7472
rwrist -16.0311
rhand -14.0604 25.9916
rfingers 7.12502
rthumb 12.0708 -3.64022
lclavicle -6.66923e-014 1.66979e-014
lhumerus -28.959 17.2807 77.5853
lradius 34.9235
lwrist -5.44034
lhand 1.64724 39.3975
lfingers 7.12502
lthumb 27.1672 67.4619
rfemur -16.1901 -5.38704 10.7245
rtibia 26.9605
rfoot -9.59624 -10.3918
rtoes -2.07133
lfemur -6.11345 5.47059 -24.8995
ltibia 21.1907
lfoot -14.504 0.933556
ltoes 4.54561
68
root 6.70453 18.0779 11.6056 -176.288 -11.19 179.213
lowerback 3.07855 1.72457 -5.91218
upperback 1.20586 2.04366 -0.99716
thorax -0.656634 0.981781 2.20858
lowerneck -6.769 -10.8526 -15.4316
upperneck 12.0173 -15.0347 12.7092
head 6.91129 -7.31116 5.12279
rclavicle -2.90226e-014 1.78906e-014
rhumerus -26.8128 -4.11638 -83.5956
rradius 57.3465
rwrist -15.9837
rhand -14.0714 25.8453
rfingers 7.12502
rthumb 12.0602 -3.78717
lclavicle -2.90226e-014 1.78906e-014
lhumerus -28.9056 17.3813 77.6249
lradius 34.9287
lwrist -5.59961
lhand 1.86317 39.7516
lfingers 7.12502
lthumb 27.3737 67.7835
rfemur -16.2675 -5.66171 10.3396
rtibia 27.0985
rfoot -9.62361 -10.5216
rtoes -1.38554
lfemur -5.75354 5.0206 -25.3158
ltibia 20.939
lfoot -14.4891 1.44262
ltoes 4.99554
69
root 6.70277 18.088 11.5826 -176.345 -11.0038 178.686
lowerback 3.22197 1.72761 -6.54627
upperback 1.24149 2.01176 -0.97974
thorax -0.719277 0.962744 2.57754
lowerneck -6.83536 -10.8025 -15.5031
upperneck 11.976 -14.9087 12.5711
head 6.88562 -7.25572 5.10304
rclavicle -7.70291e-015 -3.1408e-014
rhumerus -27.1047 -4.12829 -83.4006
rradius 56.5854
rwrist -15.8069
rhand -13.5927 25.8781
rfingers 7.12502
rthumb 12.5218 -3.72672
lclavicle -7.70291e-015 -3.1408e-014
lhumerus -29.2392 17.4731 77.8262
lradius 35.1721
lwrist -5.67535
lhand 2.13985 39.7439
lfingers 7.12502
lthumb 27.6383 67.7338
rfemur -16.274 -5.81219 9.74262
rtibia 27.2568
rfoot -9.67121 -10.5565
rtoes 0.40614
lfemur -5.26002 5.18824 -25.8556
ltibia 20.5964
lfoot -14.4648 1.38397
ltoes 5.17215
70
root 6.71309 18.0727 11.5603 -176.406 -11.0013 178.479
lowerback 3.31474 1.63948 -6.83297
upperback 1.29504 1.87679 -0.944109
thorax -0.713328 0.891961 2.77857
lowerneck -6.89227 -10.7446 -15.268
upperneck 11.8439 -14.7801 12.3202
head 6.79627 -7.19351 5.00232
rclavicle -6.85807e-015 1.59028e-015
rhumerus -27.1547 -4.31396 -83.3643
rradius 55.6506
rwrist -15.4304
rhand -12.8271 25.8269
rfingers 7.12502
rthumb 13.2598 -3.73136
lclavicle -6.85807e-015 1.59028e-015
lhumerus -29.4691 17.3594 77.9051
lradius 35.3072
lwrist -5.44644
lhand 2.19298 39.5255
lfingers 7.12502
lthumb 27.6891 67.5071
rfemur -16.3645 -6.28255 9.64094
rtibia 27.3801
rfoot -9.82252 -10.6216
rtoes 0.73455
lfemur -4.86556 5.64193 -25.9724
ltibia 20.1971
lfoot -14.2806 1.00386
ltoes 4.34711
71
root 6.72693 18.0613 11.539 -176.351 -11.0866 178.626
lowerback 3.35959 1.48639 -6.39021
upperback 1.2731 1.67808 -1.11897
thorax -0.724523 0.793284 2.35926
lowerneck -7.35541 -10.6495 -14.9202
upperneck 12.1071 -14.6752 12.3936
head 6.92392 -7.1096 4.96298
rclavicle -2.3556e-014 8.34896e-015
rhumerus -27.3188 -4.74883 -83.7984
rradius 55.0636
rwrist -15.0111
rhand -12.5261 25.2505
rfingers 7.12502
rthumb 13.55 -4.28858
lclavicle -2.3556e-014 8.34896e-015
lhumerus -29.4525 17.0733 77.6694
lradius 35.2143
lwrist -4.87752
lhand 1.50981 39.4126
lfingers 7.12502
lthumb 27.0357 67.4975
rfemur -16.667 -6.88834 10.0203
rtibia 27.4394
rfoot -10.1068 -10.9656
rtoes 3.61761
lfemur -4.7318 5.91094 -25.7198
ltibia 19.8562
lfoot -14.1069 0.69852
ltoes 3.46428
72
root 6.73971 18.0682 11.5185 -176.279 -10.9558 178.518
lowerback 2.24675 1.49191 -6.76581
upperback 2.10545 1.79015 -0.910987
thorax 0.731476 0.777043 2.81827
lowerneck -8.09239 -10.8638 -14.87
upperneck 11.6416 -14.7628 12.3635
head 6.91085 -7.10656 4.89951
rclavicle -6.55989e-015 2.18663e-014
rhumerus -26.2089 -5.11121 -83.5475
rradius 54.3785
rwrist -14.6846
rhand -12.5999 24.777
rfingers 7.12502
rthumb 13.4788 -4.76682
lclavicle -6.55989e-015 2.18663e-014
lhumerus -28.0073 17.5762 78.5414
lradius 34.9829
lwrist -5.00785
lhand 1.36308 39.7487
lfingers 7.12502
lthumb 26.8953 67.8552
rfemur -16.9824 -7.21212 10.0875
rtibia 27.4523
rfoot -10.0926 -11.4466
rtoes 7.7381
lfemur -4.64194 6.13129 -25.782
ltibia 19.6002
lfoot -13.9576 0.622395
ltoes 2.56385
73
root 6.75151 18.0693 11.498 -176.242 -10.7355 178.551
lowerback 2.10169 1.50476 -6.93281
upperback 2.2155 1.82379 -0.723596
thorax 0.913217 0.783177 3.10933
lowerneck -8.45248 -10.836 -14.8794
upperneck 11.7387 -14.6183 12.0809
head 6.96164 -7.03476 4.81085
rclavicle -1.28713e-014 -1.03368e-014
rhumerus -26.1711 -5.34153 -83.318
rradius 53.6374
rwrist -14.3076
rhand -12.432 24.8511
rfingers 7.12502
rthumb 13.6407 -4.68189
lclavicle -1.28713e-014 -1.03368e-014
lhumerus -27.834 17.9153 78.8584
lradius 35.0266
lwrist -5.589
lhand 2.27864 40.1991
lfingers 7.12502
lthumb 27.771 68.1676
rfemur -17.2802 -7.40645 10.2702
rtibia 27.3836
rfoot -10.2141 -11.6255
rtoes 7.93264
lfemur -4.5481 6.5089 -25.7076
ltibia 19.3541
lfoot -13.806 0.638995
ltoes 0.166287
74
root 6.76166 18.0699 11.4756 -176.231 -10.6349 178.849
lowerback 3.00011 1.42301 -6.86159
upperback 1.50862 1.64056 -0.440983
thorax -0.307367 0.761157 3.33536
lowerneck -8.29678 -10.5734 -15.0429
upperneck 12.3639 -14.2728 11.6451
head 7.0633 -6.9151 4.74524
rclavicle 8.29926e-015 1.43125e-014
rhumerus -27.4562 -5.25486 -83.0164
rradius 53.1954
rwrist -14.029
rhand -11.7392 24.5684
rfingers 7.12502
rthumb 14.3083 -4.91861
lclavicle 8.29926e-015 1.43125e-014
lhumerus -29.1706 17.9593 78.6598
lradius 35.1321
lwrist -5.72705
lhand 2.67364 40.059
lfingers 7.12502
lthumb 28.1487 67.966
rfemur -17.3825 -7.58663 10.6992
rtibia 27.0688
rfoot -10.781 -11.59
rtoes 8.22343
lfemur -4.53172 6.84076 -25.3586
ltibia 19.2377
lfoot -13.7084 0.74004
ltoes -3.56463
75
root 6.77339 18.0642 11.4499 -176.345 -10.5356 178.787
lowerback 2.25245 1.37326 -6.37886
upperback 2.16779 1.64224 -0.848943
thorax 0.814847 0.704593 2.67047
lowerneck -8.52892 -10.6145 -14.5788
upperneck 11.8127 -14.3674 12.1186
head 6.94334 -6.9012 4.80919
rclavicle -5.46658e-015 -1.19271e-015
rhumerus -26.7651 -6.26111 -83.5699
rradius 52.6286
rwrist -13.7584
rhand -10.9374 23.8152
rfingers 7.12502
rthumb 15.0808 -5.61543
lclavicle -5.46658e-015 -1.19271e-015
lhumerus -28.1438 17.6131 78.459
lradius 34.9052
lwrist -5.56911
lhand 2.4324 39.6663
lfingers 7.12502
lthumb 27.918 67.611
rfemur -17.4072 -7.8348 10.7449
rtibia 26.8994
rfoot -10.8069 -11.6611
rtoes 8.919
lfemur -4.19268 6.80531 -25.3691
ltibia 18.9904
lfoot -13.4679 0.977825
ltoes -5.64662
76
root 6.78654 18.0369 11.427 -176.362 -10.439 178.543
lowerback 2.1824 1.38299 -5.47634
upperback 2.32779 1.64421 -1.82383
thorax 1.06741 0.696997 1.16844
lowerneck -8.66811 -10.5269 -13.5042
upperneck 11.6458 -14.4738 12.615
head 6.88749 -6.8871 4.78723
rclavicle -1.43125e-014 6.36111e-014
rhumerus -26.9247 -7.71491 -84.7619
rradius 52.1345
rwrist -13.635
rhand -10.5662 23.3282
rfingers 7.12502
rthumb 15.4383 -6.07527
lclavicle -1.43125e-014 6.36111e-014
lhumerus -27.6834 16.3318 77.52
lradius 34.9652
lwrist -5.21748
lhand 2.24977 39.9348
lfingers 7.12502
lthumb 27.7434 67.9078
rfemur -17.8135 -8.19644 10.6594
rtibia 26.836
rfoot -10.1195 -12.0028
rtoes 6.29556
lfemur -3.84432 6.79884 -25.5472
ltibia 18.6127
lfoot -13.2365 0.965268
ltoes -5.35128
77
root 6.79302 18.0495 11.4032 -176.189 -10.3261 178.266
lowerback 2.25889 1.39444 -6.11327
upperback 2.22025 1.64961 -1.53673
thorax 0.889643 0.700174 1.81462
lowerneck -8.87593 -10.46 -13.6514
upperneck 11.6884 -14.2689 12.3127
head 6.89615 -6.79799 4.72992
rclavicle 1.97791e-014 5.48646e-014
rhumerus -27.2133 -7.8625 -84.1649
rradius 51.3804
rwrist -13.5677
rhand -10.2462 23.2775
rfingers 7.12502
rthumb 15.7466 -6.10188
lclavicle 1.97791e-014 5.48646e-014
lhumerus -27.8243 16.3601 78.122
lradius 35.0539
lwrist -5.24993
lhand 2.2628 40.1192
lfingers 7.12502
lthumb 27.7559 68.0902
rfemur -18.1062 -8.48068 10.4632
rtibia 27.1515
rfoot -10.644 -11.78
rtoes 7.29957
lfemur -3.57678 6.83937 -25.8269
ltibia 17.9484
lfoot -12.9593 1.11541
ltoes -6.79724
78
root 6.80096 18.0697 11.3772 -176.05 -10.1223 178.097
lowerback 2.10253 1.31974 -6.80342
upperback 2.2444 1.56699 -1.07968
thorax 0.98128 0.649716 2.6749
lowerneck -9.17875 -10.3908 -14.0565
upperneck 11.7996 -14.0131 12.0121
head 6.95583 -6.68962 4.71435
rclavicle -2.21645e-014 -2.5842e-014
rhumerus -27.0565 -7.92313 -83.4588
rradius 50.3587
rwrist -13.353
rhand -9.40998 23.4601
rfingers 7.12502
rthumb 16.5518 -5.85403
lclavicle -2.21645e-014 -2.5842e-014
lhumerus -27.8822 17.1494 78.7095
lradius 34.9825
lwrist -5.55401
lhand 2.50998 39.5305
lfingers 7.12502
lthumb 27.9922 67.4631
rfemur -18.087 -8.10409 10.1712
rtibia 27.1431
rfoot -11.7662 -11.3459
rtoes 15.3108
lfemur -3.46722 6.50949 -26.0372
ltibia 17.6739
lfoot -12.891 1.74373
ltoes -8.08534
79
root 6.81027 18.1063 11.3528 -176.083 -9.90954 178.41
lowerback 1.95368 1.29811 -6.84643
upperback 2.28029 1.56485 -0.678307
thorax 1.09118 0.647513 3.11703
lowerneck -9.28355 -10.2949 -14.3109
upperneck 12.0158 -13.8041 11.7653
head 7.01406 -6.60796 4.6955
rclavicle -1.53064e-014 2.82274e-014
rhumerus -27.1003 -8.41247 -82.9129
rradius 49.5028
rwrist -13.1425
rhand -8.68328 23.5417
rfingers 7.12502
rthumb 17.2513 -5.71255
lclavicle -1.53064e-014 2.82274e-014
lhumerus -27.8815 17.5967 79.1004
lradius 34.8459
lwrist -6.02272
lhand 2.83632 39.3156
lfingers 7.12502
lthumb 28.3041 67.1969
rfemur -17.7976 -7.10969 10.2525
rtibia 27.3232
rfoot -13.5997 -10.6336
rtoes 26.5317
lfemur -3.19786 6.32269 -25.676
ltibia 17.2822
lfoot -12.8032 2.09845
ltoes -7.18098
